<mxfile host="app.diagrams.net" agent="Mozilla/5.0 (Windows NT 10.0; Win64; x64) AppleWebKit/537.36 (KHTML, like Gecko) Chrome/131.0.0.0 Safari/537.36 Edg/131.0.0.0" version="24.8.9">
  <diagram name="Page-1" id="yYorG2lvUa22D63VvATj">
    <mxGraphModel dx="868" dy="471" grid="1" gridSize="10" guides="1" tooltips="1" connect="1" arrows="1" fold="1" page="1" pageScale="1" pageWidth="850" pageHeight="1100" math="0" shadow="0">
      <root>
        <mxCell id="0" />
        <mxCell id="1" parent="0" />
        <mxCell id="9n76-iMzPG_8D6XVwbJJ-5" value="" style="edgeStyle=orthogonalEdgeStyle;rounded=0;orthogonalLoop=1;jettySize=auto;html=1;" edge="1" parent="1" source="9n76-iMzPG_8D6XVwbJJ-1" target="9n76-iMzPG_8D6XVwbJJ-3">
          <mxGeometry relative="1" as="geometry" />
        </mxCell>
        <mxCell id="9n76-iMzPG_8D6XVwbJJ-1" value="Start" style="rounded=1;whiteSpace=wrap;html=1;arcSize=50;" vertex="1" parent="1">
          <mxGeometry x="305" y="120" width="120" height="60" as="geometry" />
        </mxCell>
        <mxCell id="9n76-iMzPG_8D6XVwbJJ-2" value="END" style="rounded=1;whiteSpace=wrap;html=1;arcSize=50;" vertex="1" parent="1">
          <mxGeometry x="305" y="550" width="120" height="60" as="geometry" />
        </mxCell>
        <mxCell id="9n76-iMzPG_8D6XVwbJJ-6" value="" style="edgeStyle=orthogonalEdgeStyle;rounded=0;orthogonalLoop=1;jettySize=auto;html=1;" edge="1" parent="1" source="9n76-iMzPG_8D6XVwbJJ-3" target="9n76-iMzPG_8D6XVwbJJ-4">
          <mxGeometry relative="1" as="geometry" />
        </mxCell>
        <mxCell id="9n76-iMzPG_8D6XVwbJJ-3" value="รับค่า&amp;nbsp;First Name" style="shape=parallelogram;perimeter=parallelogramPerimeter;whiteSpace=wrap;html=1;fixedSize=1;" vertex="1" parent="1">
          <mxGeometry x="305" y="210" width="120" height="60" as="geometry" />
        </mxCell>
        <mxCell id="9n76-iMzPG_8D6XVwbJJ-10" value="" style="edgeStyle=orthogonalEdgeStyle;rounded=0;orthogonalLoop=1;jettySize=auto;html=1;" edge="1" parent="1" source="9n76-iMzPG_8D6XVwbJJ-4" target="9n76-iMzPG_8D6XVwbJJ-9">
          <mxGeometry relative="1" as="geometry" />
        </mxCell>
        <mxCell id="9n76-iMzPG_8D6XVwbJJ-4" value="รับค่า Last Name" style="shape=parallelogram;perimeter=parallelogramPerimeter;whiteSpace=wrap;html=1;fixedSize=1;" vertex="1" parent="1">
          <mxGeometry x="305" y="310" width="120" height="60" as="geometry" />
        </mxCell>
        <mxCell id="9n76-iMzPG_8D6XVwbJJ-11" value="" style="edgeStyle=orthogonalEdgeStyle;rounded=0;orthogonalLoop=1;jettySize=auto;html=1;" edge="1" parent="1" source="9n76-iMzPG_8D6XVwbJJ-9" target="9n76-iMzPG_8D6XVwbJJ-2">
          <mxGeometry relative="1" as="geometry" />
        </mxCell>
        <mxCell id="9n76-iMzPG_8D6XVwbJJ-9" value="แสดงชื่อ&amp;nbsp;&lt;span style=&quot;background-color: initial;&quot;&gt;และข้อมูล&lt;/span&gt;&lt;div&gt;&lt;span style=&quot;background-color: initial;&quot;&gt;TC, RMUTL, Chiang Mai, Thailand&lt;/span&gt;&lt;/div&gt;" style="shape=parallelogram;perimeter=parallelogramPerimeter;whiteSpace=wrap;html=1;fixedSize=1;" vertex="1" parent="1">
          <mxGeometry x="247.5" y="420" width="235" height="60" as="geometry" />
        </mxCell>
      </root>
    </mxGraphModel>
  </diagram>
</mxfile>
